<svg xmlns="http://www.w3.org/2000/svg" width="1085" height="1085" viewBox="0 0 1085 1085" version="1.1">
	<path d="M 355.145 144.750 C 354.636 145.713, 353.027 150.996, 351.569 156.490 C 350.112 161.985, 348.498 166.902, 347.983 167.417 C 346.530 168.870, 343.509 165.544, 338.464 156.938 C 333.471 148.422, 331.428 146.172, 329.990 147.610 C 329.482 148.118, 328.938 154.115, 328.783 160.936 C 328.599 169.006, 328.107 173.467, 327.374 173.710 C 326.755 173.916, 323.076 171.172, 319.198 167.613 C 310.838 159.941, 307.462 157.597, 306.040 158.475 C 304.814 159.233, 305.254 161.308, 309.204 173.387 C 311.987 181.899, 312.219 185, 310.073 185 C 309.529 185, 304.322 182.709, 298.502 179.908 C 283.693 172.783, 282.367 173.777, 290.654 185.793 C 295.412 192.694, 298 197.328, 298 198.950 C 298 200.428, 293.260 200.258, 282.287 198.387 C 267.142 195.806, 267.400 197.087, 285.052 212.149 C 289.245 215.726, 290.233 217.077, 289.339 218.010 C 288.701 218.676, 283.301 219.850, 277.339 220.618 C 271.378 221.386, 265.938 222.222, 265.250 222.476 C 262.400 223.528, 264.378 225.892, 270.250 228.451 C 281.628 233.411, 287 236.137, 287 236.951 C 287 238.463, 284.072 240.184, 274.288 244.419 C 264.789 248.530, 262.041 251.034, 265.550 252.381 C 266.457 252.729, 271.524 253.496, 276.812 254.085 C 291.812 255.758, 292.628 257.067, 283.302 264.502 C 277.170 269.392, 271 275.206, 271 276.096 C 271 277.651, 274.119 277.750, 281.601 276.431 C 292.229 274.558, 298 274.569, 298 276.461 C 298 277.265, 295.485 281.617, 292.411 286.131 C 286.125 295.363, 284.584 298.625, 286.075 299.547 C 286.625 299.886, 292.012 297.830, 298.046 294.978 C 304.080 292.126, 309.699 290.054, 310.533 290.374 C 312.312 291.057, 312.089 292.359, 307.879 305.817 C 303.506 319.796, 304.450 320.117, 317.111 308.956 C 322.130 304.532, 326.745 301.081, 327.368 301.287 C 328.096 301.528, 328.678 306.238, 329 314.500 C 329.338 323.189, 329.887 327.466, 330.696 327.735 C 331.354 327.953, 333.565 325.514, 335.608 322.315 C 344.578 308.277, 345.561 306.977, 347 307.244 C 347.988 307.427, 349.602 311.420, 351.729 318.940 C 356.480 335.739, 357.390 335.930, 361.510 321 C 364.840 308.932, 365.642 307, 367.324 307 C 368.876 307, 468.465 469.689, 468.327 472 C 468.278 472.825, 467.218 476.200, 465.972 479.500 C 462.894 487.648, 462.226 499.930, 464.379 508.787 C 465.278 512.484, 468.019 520.796, 470.471 527.259 C 478.116 547.408, 483.660 581.920, 484.685 615.750 L 485.299 636 548.998 636 L 612.698 636 613.385 620.250 C 614.176 602.101, 616.023 584.999, 619.567 563.008 C 622.584 544.287, 623.406 541.069, 629.338 524.751 C 631.887 517.739, 634.541 508.606, 635.236 504.456 L 636.500 496.910 663 517.222 C 696.692 543.047, 694.721 541.714, 701.949 543.566 C 714.542 546.792, 726.385 541.043, 731.690 529.129 C 733.057 526.061, 733.378 519.629, 733.770 487.501 C 734.215 450.932, 734.294 449.668, 735.866 453.918 C 736.765 456.347, 738.006 458.503, 738.625 458.709 C 740.002 459.167, 742.152 453.856, 744.452 444.316 C 745.404 440.365, 746.768 436.332, 747.483 435.354 C 749.305 432.862, 750.891 434.386, 757 444.500 C 762.433 453.495, 764.565 455.835, 766.010 454.390 C 766.518 453.882, 767.062 447.885, 767.217 441.064 C 767.408 432.701, 767.881 428.537, 768.671 428.275 C 769.315 428.061, 772.915 430.756, 776.671 434.263 C 783.596 440.729, 787.812 444, 789.223 444 C 790.816 444, 789.905 438.314, 786.790 428.811 C 782.473 415.638, 782.963 415.222, 795.732 421.243 C 801.104 423.776, 806.512 426.138, 807.750 426.492 C 811.624 427.599, 810.462 423.832, 804 414.335 C 800.700 409.485, 798 404.726, 798 403.759 C 798 401.501, 802.519 401.430, 813.416 403.515 C 821.077 404.981, 825 404.803, 825 402.990 C 825 402.509, 822.438 399.952, 819.307 397.308 C 816.176 394.663, 811.789 390.807, 809.557 388.738 C 805.814 385.268, 805.635 384.872, 807.248 383.630 C 808.209 382.889, 813.437 381.778, 818.866 381.160 C 824.295 380.543, 829.471 379.756, 830.369 379.412 C 833.498 378.211, 831.956 376.254, 825.750 373.549 C 813.083 368.027, 809 365.821, 809 364.499 C 809 363.398, 818.478 358, 820.411 358 C 822.270 358, 832 352.535, 832 351.490 C 832 349.664, 829.983 349.104, 818.866 347.840 C 813.437 347.222, 808.209 346.111, 807.248 345.370 C 805.635 344.128, 805.814 343.732, 809.557 340.262 C 811.789 338.193, 816.176 334.337, 819.307 331.692 C 822.438 329.048, 825 326.509, 825 326.049 C 825 324.268, 821.647 324.107, 813.734 325.507 C 802.239 327.540, 798 327.468, 798 325.241 C 798 324.274, 800.700 319.515, 804 314.665 C 810.462 305.168, 811.624 301.401, 807.750 302.508 C 806.513 302.862, 801.104 305.224, 795.732 307.757 C 783.084 313.721, 782.666 313.363, 786.850 300.165 C 789.987 290.270, 790.781 285, 789.135 285 C 787.904 285, 783.484 288.491, 776.157 295.252 C 772.669 298.471, 769.294 300.932, 768.657 300.722 C 767.897 300.470, 767.329 295.935, 767 287.500 C 766.658 278.728, 766.117 274.535, 765.290 274.261 C 764.066 273.855, 762.230 276.232, 754.674 288 C 752.378 291.575, 749.825 294.500, 749 294.500 C 747.539 294.500, 746.311 291.353, 742.562 278 C 741.713 274.975, 740.555 271.825, 739.990 271 C 738.371 268.638, 736.520 271.848, 734.040 281.315 C 731.043 292.754, 729.995 295.146, 728.136 294.788 C 727.266 294.620, 723.842 289.993, 720.527 284.505 C 717.201 278.999, 713.716 274.376, 712.750 274.190 C 711.156 273.883, 711 275.011, 711 286.868 C 711 294.831, 710.595 300.132, 709.956 300.527 C 708.581 301.377, 705.995 299.566, 697.217 291.605 C 686.185 281.600, 684.963 282.598, 690 297.500 C 693.166 306.866, 693.799 312, 691.789 312 C 691.123 312, 685.740 309.713, 679.827 306.918 C 670.028 302.287, 667 301.590, 667 303.967 C 667 304.434, 669.925 309.191, 673.500 314.538 C 677.075 319.885, 680 324.876, 680 325.630 C 680 327.462, 674.831 327.401, 663.608 325.438 C 649.930 323.046, 649.691 325.169, 662.484 335.458 C 667.091 339.163, 671.109 342.841, 671.411 343.630 C 672.183 345.640, 669.038 346.623, 657.413 348.006 C 641.868 349.855, 641.624 351.487, 656.002 357.447 C 660.946 359.496, 665.990 361.981, 667.211 362.970 L 669.431 364.767 665.979 366.867 C 664.080 368.021, 659.053 370.366, 654.807 372.078 C 641.658 377.378, 642.248 379.308, 657.565 381.100 C 670.059 382.561, 672.411 383.365, 671.136 385.741 C 670.617 386.708, 666.559 390.412, 662.118 393.971 C 649.718 403.911, 650.032 405.936, 663.608 403.562 C 674.831 401.599, 680 401.538, 680 403.370 C 680 404.124, 677.075 409.115, 673.500 414.462 C 669.925 419.809, 667 424.566, 667 425.033 C 667 427.206, 669.587 426.887, 676.031 423.916 C 679.878 422.143, 683.252 420.919, 683.529 421.196 C 683.806 421.473, 683.913 433.682, 683.767 448.327 L 683.500 474.954 653.355 451.628 C 636.776 438.798, 621.452 427.598, 619.303 426.738 C 610.947 423.394, 603.904 423, 552.551 423 C 504.649 423, 501.252 422.884, 497.984 421.138 C 495.216 419.659, 492.125 415.396, 482.939 400.388 L 471.377 381.500 480.502 380.875 C 485.521 380.532, 492.137 379.521, 495.206 378.629 L 500.785 377.007 511.642 387.840 C 520.551 396.729, 523.927 399.376, 530.448 402.587 C 537.757 406.185, 539.044 406.495, 546.448 406.439 C 556.589 406.363, 565.500 403.335, 578.614 395.509 L 588.044 389.882 593.772 393.359 C 596.922 395.271, 601.975 397.818, 605 399.017 C 610.813 401.322, 623.875 402.750, 628.507 401.587 C 630.961 400.972, 631.165 400.586, 630.572 397.702 C 627.995 385.184, 626.762 372.097, 626.031 349.500 C 625.435 331.054, 624.722 321.757, 623.580 317.500 C 616.639 291.632, 592.252 268.197, 566.259 262.414 C 543.146 257.272, 515.067 267.277, 496.297 287.342 C 488.517 295.659, 483.333 305.965, 477.420 324.870 C 470.011 348.559, 462.733 366.228, 461.127 364.426 C 460.673 363.917, 451.829 349.550, 441.474 332.500 C 431.119 315.450, 422.001 300.489, 421.211 299.254 L 419.775 297.008 423.432 298.536 C 426.950 300.006, 429 299.821, 429 298.033 C 429 297.566, 426.075 292.809, 422.500 287.462 C 418.925 282.115, 416 277.124, 416 276.370 C 416 274.538, 421.169 274.599, 432.392 276.562 C 446.091 278.958, 446.313 276.834, 433.447 266.486 C 428.696 262.666, 425 258.932, 425 257.955 C 425 255.886, 426.507 255.455, 439 253.950 C 453.758 252.173, 454.214 250.327, 441.193 245.078 C 436.947 243.366, 431.920 241.021, 430.021 239.867 L 426.569 237.767 428.789 235.970 C 430.010 234.981, 435.054 232.496, 439.998 230.447 C 454.160 224.576, 454.058 222.783, 439.463 221.037 C 421.476 218.884, 421.148 218.202, 433.435 208.465 C 446.330 198.246, 446.101 196.040, 432.392 198.438 C 421.488 200.345, 415.994 200.450, 416.016 198.750 C 416.025 198.063, 418.950 193.060, 422.516 187.632 C 426.082 182.205, 429 177.394, 429 176.941 C 429 174.592, 425.939 175.302, 416.173 179.918 C 410.260 182.713, 404.877 185, 404.211 185 C 402.201 185, 402.834 179.866, 406 170.500 C 411.029 155.622, 409.973 154.742, 398.905 164.585 C 388.644 173.710, 387.076 174.714, 385.887 172.921 C 385.369 172.139, 384.999 167.450, 385.066 162.500 C 385.271 147.372, 385.205 146.814, 383.277 147.185 C 382.329 147.368, 378.842 152.007, 375.527 157.495 C 372.212 162.983, 368.793 167.609, 367.928 167.776 C 365.955 168.155, 364.618 165.253, 361.948 154.797 C 358.965 143.111, 357.307 140.663, 355.145 144.750 M 459.455 664.967 C 452.830 669.793, 421.625 691.013, 390.112 712.121 C 322.433 757.454, 327.030 754.312, 327.013 755.250 C 327.006 755.663, 404.448 756, 499.107 756 C 660.152 756, 671.172 755.892, 670.567 754.313 C 670.211 753.385, 662.558 739.773, 653.560 724.063 C 636.724 694.667, 626.743 675.917, 621.187 663.250 L 618.008 656 544.754 656.096 L 471.500 656.193 459.455 664.967 M 252.539 787.113 C 232.211 793.132, 213.710 799.152, 211.426 800.490 C 206.217 803.543, 201.331 809.055, 198.611 814.949 C 195.584 821.506, 195.626 835.582, 198.692 842.235 C 201.915 849.229, 209.449 856.274, 216.559 858.944 C 228.257 863.337, 222.951 864.647, 378 819.076 C 455.275 796.364, 519.175 777.394, 520 776.921 C 520.843 776.437, 470.720 776.084, 405.500 776.115 L 289.500 776.168 252.539 787.113 M 573.127 782.864 C 730.527 911.901, 762.161 937.516, 767 939.849 C 774.444 943.437, 787.053 943.571, 794.136 940.135 C 812.588 931.186, 819.121 909.023, 808.276 892.166 C 806.316 889.119, 785.416 871.414, 737.166 831.926 L 668.833 776 616.793 776 L 564.754 776 573.127 782.864" stroke="none" fill="black" fill-rule="evenodd"/>
</svg>